<?xml version="1.0" encoding="UTF-8" standalone="no"?>
<!-- Uploaded to: SVG Repo, www.svgrepo.com, Generator: SVG Repo Mixer Tools -->

<svg
   fill="#000000"
   width="800px"
   height="800px"
   viewBox="0 0 512 512"
   version="1.1"
   id="svg37461"
   sodipodi:docname="mug.svg"
   inkscape:version="1.2.2 (732a01da63, 2022-12-09)"
   xmlns:inkscape="http://www.inkscape.org/namespaces/inkscape"
   xmlns:sodipodi="http://sodipodi.sourceforge.net/DTD/sodipodi-0.dtd"
   xmlns="http://www.w3.org/2000/svg"
   xmlns:svg="http://www.w3.org/2000/svg">
  <defs
     id="defs37465" />
  <sodipodi:namedview
     id="namedview37463"
     pagecolor="#505050"
     bordercolor="#eeeeee"
     borderopacity="1"
     inkscape:showpageshadow="0"
     inkscape:pageopacity="0"
     inkscape:pagecheckerboard="0"
     inkscape:deskcolor="#505050"
     showgrid="false"
     inkscape:zoom="0.3663697"
     inkscape:cx="-734.23102"
     inkscape:cy="360.2918"
     inkscape:window-width="1920"
     inkscape:window-height="1009"
     inkscape:window-x="-8"
     inkscape:window-y="-8"
     inkscape:window-maximized="1"
     inkscape:current-layer="svg37461" />
  <path
     d="M 372.43223,113.6 H 116 c -11.0625,0 -20,8.9375 -20,20 v 204.8 c 0,33.125 26.875,60 60,60 h 120 c 33.125,0 74.08,-21.275 74.08,-54.4 l 24.66827,-6.17611 c 0,0 27.29895,-12.31467 38.24758,-33.47503 C 425.37853,280.41691 430.08,251.65177 430.08,231.15223 430.08,192.52723 411.05723,113.6 372.43223,113.6 Z M 358.48,298.4 H 341.12 V 153.6 h 16.56 c 16.5625,0 25.53582,55.97164 25.53582,72.53414 0,16.5625 -8.17332,72.26586 -24.73582,72.26586 z"
     id="path37459"
     sodipodi:nodetypes="ssssssccssssccsss"
     style="fill:#00cc65;fill-opacity:1;stroke-width:0.625" />
</svg>
