<?xml version="1.0" encoding="UTF-8" standalone="no"?>
<!-- Uploaded to: SVG Repo, www.svgrepo.com, Generator: SVG Repo Mixer Tools -->

<svg
   width="400"
   height="400"
   viewBox="0 0 12 12"
   fill="none"
   version="1.1"
   id="svg146"
   sodipodi:docname="precheck.svg"
   inkscape:version="1.2.2 (732a01da63, 2022-12-09)"
   xmlns:inkscape="http://www.inkscape.org/namespaces/inkscape"
   xmlns:sodipodi="http://sodipodi.sourceforge.net/DTD/sodipodi-0.dtd"
   xmlns="http://www.w3.org/2000/svg"
   xmlns:svg="http://www.w3.org/2000/svg">
  <defs
     id="defs150" />
  <sodipodi:namedview
     id="namedview148"
     pagecolor="#505050"
     bordercolor="#eeeeee"
     borderopacity="1"
     inkscape:showpageshadow="0"
     inkscape:pageopacity="0"
     inkscape:pagecheckerboard="0"
     inkscape:deskcolor="#505050"
     showgrid="false"
     inkscape:zoom="0.71241008"
     inkscape:cx="108.78566"
     inkscape:cy="412.68366"
     inkscape:window-width="1920"
     inkscape:window-height="1009"
     inkscape:window-x="-8"
     inkscape:window-y="-8"
     inkscape:window-maximized="1"
     inkscape:current-layer="g916" />
  <g
     id="g916"
     transform="matrix(0.49989637,0,0,0.49886337,-0.01912095,0.01850937)">
    <path
       d="m 17.624985,12 c 0,3.106683 -2.51832,5.624988 -5.625015,5.624988 -3.1065079,0 -5.6249605,-2.518305 -5.6249605,-5.624988 0,-3.106681 2.5184526,-5.6249885 5.6249605,-5.6249885 3.106695,0 5.625015,2.5183075 5.625015,5.6249885 z"
       stroke="#000000"
       stroke-width="3.75002"
       stroke-linecap="round"
       stroke-linejoin="round"
       id="path142"
       style="stroke-width:2.40298161;stroke-dasharray:none" />
    <path
       d="m 12.000013,1.308205 c -5.0171004,0 -9.2640101,4.4949518 -10.6918075,10.691794 1.427775,6.196809 5.6747071,10.691791 10.6918075,10.691791 5.017035,0 9.263966,-4.494982 10.691785,-10.691791 C 21.263979,5.8032028 17.017048,1.308205 12.000013,1.308205 Z"
       stroke="#000000"
       stroke-width="2.61641"
       stroke-linecap="round"
       stroke-linejoin="round"
       id="path144"
       style="stroke-width:2.40298161;stroke-dasharray:none" />
    <path
       d="m 9.3200992,12.315015 2.0865978,1.994865 4.173197,-3.989732"
       style="stroke:#000000;stroke-width:2.40298161;stroke-linecap:round;stroke-linejoin:round;stroke-dasharray:none"
       id="path2338" />
  </g>
</svg>
